{
    "asset" : {
        "generator" : "Khronos glTF Blender I/O v1.2.75",
        "version" : "2.0"
    },
    "scene" : 0,
    "scenes" : [
        {
            "name" : "Scene",
            "nodes" : [
                6
            ]
        }
    ],
    "nodes" : [
        {
            "mesh" : 0,
            "name" : "Cube.003",
            "scale" : [
                0.16516739130020142,
                10.394460678100586,
                1.006512999534607
            ],
            "translation" : [
                -0.39437222480773926,
                10.611825942993164,
                0.0076215267181396484
            ]
        },
        {
            "mesh" : 1,
            "name" : "Torus",
            "rotation" : [
                0.7071067094802856,
                0,
                0,
                0.70710688829422
            ],
            "scale" : [
                2.3390164375305176,
                0.16768212616443634,
                1.4374566078186035
            ],
            "translation" : [
                0.6226189136505127,
                10.232732772827148,
                1.0902113914489746
            ]
        },
        {
            "children" : [
                0,
                1
            ],
            "mesh" : 2,
            "name" : "Cube.001",
            "scale" : [
                0.304323673248291,
                0.8604353666305542,
                0.42450448870658875
            ],
            "translation" : [
                1.06698739528656,
                1.66552734375,
                -0.5049347877502441
            ]
        },
        {
            "mesh" : 3,
            "name" : "Cube.004",
            "scale" : [
                0.16516739130020142,
                10.394460678100586,
                1.0586892366409302
            ],
            "translation" : [
                -0.39437222480773926,
                10.611825942993164,
                -0.002695322036743164
            ]
        },
        {
            "mesh" : 4,
            "name" : "Torus.001",
            "rotation" : [
                0.7071067094802856,
                0,
                0,
                0.70710688829422
            ],
            "scale" : [
                2.3390164375305176,
                0.16768212616443634,
                1.4374566078186035
            ],
            "translation" : [
                0.6226189136505127,
                10.232732772827148,
                -1.0737991333007812
            ]
        },
        {
            "children" : [
                3,
                4
            ],
            "mesh" : 5,
            "name" : "Cube.002",
            "scale" : [
                0.304323673248291,
                0.8604353666305542,
                0.42450448870658875
            ],
            "translation" : [
                1.06698739528656,
                1.66552734375,
                0.5116550922393799
            ]
        },
        {
            "children" : [
                2,
                5
            ],
            "mesh" : 6,
            "name" : "Cube",
            "scale" : [
                0.04999997839331627,
                0.05000000074505806,
                0.4999997615814209
            ],
            "translation" : [
                0,
                1,
                0
            ]
        }
    ],
    "materials" : [
        {
            "doubleSided" : true,
            "name" : "Glass",
            "pbrMetallicRoughness" : {}
        },
        {
            "doubleSided" : true,
            "name" : "Metal",
            "pbrMetallicRoughness" : {}
        },
        {
            "doubleSided" : true,
            "name" : "Window.001",
            "pbrMetallicRoughness" : {}
        },
        {
            "doubleSided" : true,
            "name" : "Glass.001",
            "pbrMetallicRoughness" : {}
        },
        {
            "doubleSided" : true,
            "name" : "Metal.001",
            "pbrMetallicRoughness" : {}
        },
        {
            "doubleSided" : true,
            "name" : "Window",
            "pbrMetallicRoughness" : {}
        },
        {
            "doubleSided" : true,
            "name" : "Window.002",
            "pbrMetallicRoughness" : {}
        }
    ],
    "meshes" : [
        {
            "name" : "Cube.003",
            "primitives" : [
                {
                    "attributes" : {
                        "POSITION" : 0,
                        "NORMAL" : 1
                    },
                    "indices" : 2,
                    "material" : 0
                }
            ]
        },
        {
            "name" : "Torus",
            "primitives" : [
                {
                    "attributes" : {
                        "POSITION" : 3,
                        "NORMAL" : 4
                    },
                    "indices" : 5,
                    "material" : 1
                }
            ]
        },
        {
            "name" : "Cube.001",
            "primitives" : [
                {
                    "attributes" : {
                        "POSITION" : 6,
                        "NORMAL" : 7
                    },
                    "indices" : 8,
                    "material" : 2
                }
            ]
        },
        {
            "name" : "Cube.004",
            "primitives" : [
                {
                    "attributes" : {
                        "POSITION" : 9,
                        "NORMAL" : 10
                    },
                    "indices" : 2,
                    "material" : 3
                }
            ]
        },
        {
            "name" : "Torus.001",
            "primitives" : [
                {
                    "attributes" : {
                        "POSITION" : 11,
                        "NORMAL" : 12
                    },
                    "indices" : 5,
                    "material" : 4
                }
            ]
        },
        {
            "name" : "Cube.002",
            "primitives" : [
                {
                    "attributes" : {
                        "POSITION" : 13,
                        "NORMAL" : 14
                    },
                    "indices" : 8,
                    "material" : 5
                }
            ]
        },
        {
            "name" : "Cube",
            "primitives" : [
                {
                    "attributes" : {
                        "POSITION" : 15,
                        "NORMAL" : 16
                    },
                    "indices" : 8,
                    "material" : 6
                }
            ]
        }
    ],
    "accessors" : [
        {
            "bufferView" : 0,
            "componentType" : 5126,
            "count" : 24,
            "max" : [
                1,
                1,
                1
            ],
            "min" : [
                -1,
                -1,
                -1
            ],
            "type" : "VEC3"
        },
        {
            "bufferView" : 1,
            "componentType" : 5126,
            "count" : 24,
            "type" : "VEC3"
        },
        {
            "bufferView" : 2,
            "componentType" : 5123,
            "count" : 36,
            "type" : "SCALAR"
        },
        {
            "bufferView" : 3,
            "componentType" : 5126,
            "count" : 300,
            "max" : [
                1.25,
                0.25,
                1.25
            ],
            "min" : [
                5.662342772438933e-08,
                -0.25,
                -1.25
            ],
            "type" : "VEC3"
        },
        {
            "bufferView" : 4,
            "componentType" : 5126,
            "count" : 300,
            "type" : "VEC3"
        },
        {
            "bufferView" : 5,
            "componentType" : 5123,
            "count" : 1728,
            "type" : "SCALAR"
        },
        {
            "bufferView" : 6,
            "componentType" : 5126,
            "count" : 129,
            "max" : [
                1.0000052452087402,
                23.000003814697266,
                1.2000060081481934
            ],
            "min" : [
                -1.0000590085983276,
                -1.000040054321289,
                -1.2000004053115845
            ],
            "type" : "VEC3"
        },
        {
            "bufferView" : 7,
            "componentType" : 5126,
            "count" : 129,
            "type" : "VEC3"
        },
        {
            "bufferView" : 8,
            "componentType" : 5123,
            "count" : 195,
            "type" : "SCALAR"
        },
        {
            "bufferView" : 9,
            "componentType" : 5126,
            "count" : 24,
            "max" : [
                1,
                1,
                1
            ],
            "min" : [
                -1,
                -1,
                -1
            ],
            "type" : "VEC3"
        },
        {
            "bufferView" : 10,
            "componentType" : 5126,
            "count" : 24,
            "type" : "VEC3"
        },
        {
            "bufferView" : 11,
            "componentType" : 5126,
            "count" : 300,
            "max" : [
                1.25,
                0.25,
                1.25
            ],
            "min" : [
                5.662342772438933e-08,
                -0.25,
                -1.25
            ],
            "type" : "VEC3"
        },
        {
            "bufferView" : 12,
            "componentType" : 5126,
            "count" : 300,
            "type" : "VEC3"
        },
        {
            "bufferView" : 13,
            "componentType" : 5126,
            "count" : 129,
            "max" : [
                1.0000052452087402,
                23.000003814697266,
                1.2000060081481934
            ],
            "min" : [
                -1.0000590085983276,
                -1.000040054321289,
                -1.2000004053115845
            ],
            "type" : "VEC3"
        },
        {
            "bufferView" : 14,
            "componentType" : 5126,
            "count" : 129,
            "type" : "VEC3"
        },
        {
            "bufferView" : 15,
            "componentType" : 5126,
            "count" : 129,
            "max" : [
                1.0000052452087402,
                23.000003814697266,
                1.2000060081481934
            ],
            "min" : [
                -1.0000590085983276,
                -1.000040054321289,
                -1.2000004053115845
            ],
            "type" : "VEC3"
        },
        {
            "bufferView" : 16,
            "componentType" : 5126,
            "count" : 129,
            "type" : "VEC3"
        }
    ],
    "bufferViews" : [
        {
            "buffer" : 0,
            "byteLength" : 288,
            "byteOffset" : 0
        },
        {
            "buffer" : 0,
            "byteLength" : 288,
            "byteOffset" : 288
        },
        {
            "buffer" : 0,
            "byteLength" : 72,
            "byteOffset" : 576
        },
        {
            "buffer" : 0,
            "byteLength" : 3600,
            "byteOffset" : 648
        },
        {
            "buffer" : 0,
            "byteLength" : 3600,
            "byteOffset" : 4248
        },
        {
            "buffer" : 0,
            "byteLength" : 3456,
            "byteOffset" : 7848
        },
        {
            "buffer" : 0,
            "byteLength" : 1548,
            "byteOffset" : 11304
        },
        {
            "buffer" : 0,
            "byteLength" : 1548,
            "byteOffset" : 12852
        },
        {
            "buffer" : 0,
            "byteLength" : 390,
            "byteOffset" : 14400
        },
        {
            "buffer" : 0,
            "byteLength" : 288,
            "byteOffset" : 14792
        },
        {
            "buffer" : 0,
            "byteLength" : 288,
            "byteOffset" : 15080
        },
        {
            "buffer" : 0,
            "byteLength" : 3600,
            "byteOffset" : 15368
        },
        {
            "buffer" : 0,
            "byteLength" : 3600,
            "byteOffset" : 18968
        },
        {
            "buffer" : 0,
            "byteLength" : 1548,
            "byteOffset" : 22568
        },
        {
            "buffer" : 0,
            "byteLength" : 1548,
            "byteOffset" : 24116
        },
        {
            "buffer" : 0,
            "byteLength" : 1548,
            "byteOffset" : 25664
        },
        {
            "buffer" : 0,
            "byteLength" : 1548,
            "byteOffset" : 27212
        }
    ],
    "buffers" : [
        {
            "byteLength" : 28760,
            "uri" : "data:application/octet-stream;base64,"
        }
    ]
}
