{
    "asset" : {
        "generator" : "Khronos glTF Blender I/O v1.2.75",
        "version" : "2.0"
    },
    "scene" : 0,
    "scenes" : [
        {
            "name" : "Scene",
            "nodes" : [
                0
            ]
        }
    ],
    "nodes" : [
        {
            "mesh" : 0,
            "name" : "Cube.003",
            "scale" : [
                0.0025132163427770138,
                0.44040653109550476,
                0.44057148694992065
            ],
            "translation" : [
                0.047348503023386,
                1.5523420572280884,
                0.006720811128616333
            ]
        }
    ],
    "materials" : [
        {
            "doubleSided" : true,
            "name" : "Window.002",
            "pbrMetallicRoughness" : {}
        },
        {
            "doubleSided" : true,
            "name" : "Window.001",
            "pbrMetallicRoughness" : {}
        },
        {
            "doubleSided" : true,
            "name" : "Metal",
            "pbrMetallicRoughness" : {}
        },
        {
            "doubleSided" : true,
            "emissiveFactor" : [
                0,
                0,
                0
            ],
            "name" : "Material",
            "pbrMetallicRoughness" : {
                "baseColorFactor" : [
                    0.10043573379516602,
                    0.3041585087776184,
                    0.8000000715255737,
                    0.800000011920929
                ],
                "metallicFactor" : 0,
                "roughnessFactor" : 0.5
            }
        }
    ],
    "meshes" : [
        {
            "name" : "Cube.003",
            "primitives" : [
                {
                    "attributes" : {
                        "POSITION" : 0,
                        "NORMAL" : 1
                    },
                    "indices" : 2,
                    "material" : 0
                },
                {
                    "attributes" : {
                        "POSITION" : 3,
                        "NORMAL" : 4
                    },
                    "indices" : 2,
                    "material" : 1
                },
                {
                    "attributes" : {
                        "POSITION" : 5,
                        "NORMAL" : 6
                    },
                    "indices" : 7,
                    "material" : 2
                },
                {
                    "attributes" : {
                        "POSITION" : 8,
                        "NORMAL" : 9
                    },
                    "indices" : 10,
                    "material" : 3
                }
            ]
        }
    ],
    "accessors" : [
        {
            "bufferView" : 0,
            "componentType" : 5126,
            "count" : 129,
            "max" : [
                1.0551185607910156,
                1.3570599555969238,
                1.3466187715530396
            ],
            "min" : [
                -38.73578643798828,
                -1.367700219154358,
                -1.3771220445632935
            ],
            "type" : "VEC3"
        },
        {
            "bufferView" : 1,
            "componentType" : 5126,
            "count" : 129,
            "type" : "VEC3"
        },
        {
            "bufferView" : 2,
            "componentType" : 5123,
            "count" : 195,
            "type" : "SCALAR"
        },
        {
            "bufferView" : 3,
            "componentType" : 5126,
            "count" : 129,
            "max" : [
                8.442211151123047,
                1.1817150115966797,
                1.1272317171096802
            ],
            "min" : [
                -3.6671056747436523,
                -1.1627647876739502,
                -1.1584192514419556
            ],
            "type" : "VEC3"
        },
        {
            "bufferView" : 4,
            "componentType" : 5126,
            "count" : 129,
            "type" : "VEC3"
        },
        {
            "bufferView" : 5,
            "componentType" : 5126,
            "count" : 300,
            "max" : [
                23.85919761657715,
                0.11005035042762756,
                1.0298713445663452
            ],
            "min" : [
                6.157336235046387,
                -0.24099984765052795,
                0.9894796013832092
            ],
            "type" : "VEC3"
        },
        {
            "bufferView" : 6,
            "componentType" : 5126,
            "count" : 300,
            "type" : "VEC3"
        },
        {
            "bufferView" : 7,
            "componentType" : 5123,
            "count" : 1728,
            "type" : "SCALAR"
        },
        {
            "bufferView" : 8,
            "componentType" : 5126,
            "count" : 24,
            "max" : [
                1,
                1,
                1
            ],
            "min" : [
                -1,
                -1,
                -1
            ],
            "type" : "VEC3"
        },
        {
            "bufferView" : 9,
            "componentType" : 5126,
            "count" : 24,
            "type" : "VEC3"
        },
        {
            "bufferView" : 10,
            "componentType" : 5123,
            "count" : 36,
            "type" : "SCALAR"
        }
    ],
    "bufferViews" : [
        {
            "buffer" : 0,
            "byteLength" : 1548,
            "byteOffset" : 0
        },
        {
            "buffer" : 0,
            "byteLength" : 1548,
            "byteOffset" : 1548
        },
        {
            "buffer" : 0,
            "byteLength" : 390,
            "byteOffset" : 3096
        },
        {
            "buffer" : 0,
            "byteLength" : 1548,
            "byteOffset" : 3488
        },
        {
            "buffer" : 0,
            "byteLength" : 1548,
            "byteOffset" : 5036
        },
        {
            "buffer" : 0,
            "byteLength" : 3600,
            "byteOffset" : 6584
        },
        {
            "buffer" : 0,
            "byteLength" : 3600,
            "byteOffset" : 10184
        },
        {
            "buffer" : 0,
            "byteLength" : 3456,
            "byteOffset" : 13784
        },
        {
            "buffer" : 0,
            "byteLength" : 288,
            "byteOffset" : 17240
        },
        {
            "buffer" : 0,
            "byteLength" : 288,
            "byteOffset" : 17528
        },
        {
            "buffer" : 0,
            "byteLength" : 72,
            "byteOffset" : 17816
        }
    ],
    "buffers" : [
        {
            "byteLength" : 17888,
            "uri" : "data:application/octet-stream;base64,"
        }
    ]
}
