{
    "asset" : {
        "generator" : "Khronos glTF Blender I/O v1.2.75",
        "version" : "2.0"
    },
    "scene" : 0,
    "scenes" : [
        {
            "name" : "Scene",
            "nodes" : [
                0
            ]
        }
    ],
    "nodes" : [
        {
            "mesh" : 0,
            "name" : "Cube"
        }
    ],
    "materials" : [
        {
            "doubleSided" : true,
            "emissiveFactor" : [
                0,
                0,
                0
            ],
            "name" : "Material",
            "pbrMetallicRoughness" : {
                "baseColorFactor" : [
                    1,
                    1,
                    1,
                    1
                ],
                "metallicFactor" : 0,
                "roughnessFactor" : 0.4057143032550812
            }
        }
    ],
    "meshes" : [
        {
            "name" : "Cube",
            "primitives" : [
                {
                    "attributes" : {
                        "POSITION" : 0,
                        "NORMAL" : 1,
                        "TEXCOORD_0" : 2
                    },
                    "indices" : 3,
                    "material" : 0
                }
            ]
        }
    ],
    "accessors" : [
        {
            "bufferView" : 0,
            "componentType" : 5126,
            "count" : 3840,
            "max" : [
                40.41252517700195,
                20.643579483032227,
                19.467185974121094
            ],
            "min" : [
                -52.5710334777832,
                -18.372461318969727,
                -25.23891258239746
            ],
            "type" : "VEC3"
        },
        {
            "bufferView" : 1,
            "componentType" : 5126,
            "count" : 3840,
            "type" : "VEC3"
        },
        {
            "bufferView" : 2,
            "componentType" : 5126,
            "count" : 3840,
            "type" : "VEC2"
        },
        {
            "bufferView" : 3,
            "componentType" : 5123,
            "count" : 3840,
            "type" : "SCALAR"
        }
    ],
    "bufferViews" : [
        {
            "buffer" : 0,
            "byteLength" : 46080,
            "byteOffset" : 0
        },
        {
            "buffer" : 0,
            "byteLength" : 46080,
            "byteOffset" : 46080
        },
        {
            "buffer" : 0,
            "byteLength" : 30720,
            "byteOffset" : 92160
        },
        {
            "buffer" : 0,
            "byteLength" : 7680,
            "byteOffset" : 122880
        }
    ],
    "buffers" : [
        {
            "byteLength" : 130560,
            "uri" : "data:application/octet-stream;base64,"
        }
    ]
}
