{
    "asset" : {
        "generator" : "Khronos glTF Blender I/O v1.2.75",
        "version" : "2.0"
    },
    "scene" : 0,
    "scenes" : [
        {
            "name" : "Scene",
            "nodes" : [
                3,
                4,
                5
            ]
        }
    ],
    "nodes" : [
        {
            "name" : "Bone",
            "rotation" : [
                -0.04531349241733551,
                2.715498403915717e-08,
                2.715498581551401e-08,
                0.9989728331565857
            ]
        },
        {
            "name" : "Bone.001",
            "rotation" : [
                -0.786666750907898,
                -8.284890107290721e-09,
                -8.284890107290721e-09,
                0.6173778772354126
            ]
        },
        {
            "mesh" : 0,
            "name" : "Cube",
            "skin" : 0
        },
        {
            "children" : [
                2,
                0,
                1
            ],
            "name" : "Armature",
            "rotation" : [
                0.9325678944587708,
                0,
                0,
                0.36099469661712646
            ]
        },
        {
            "name" : "Lamp",
            "rotation" : [
                0.16907575726509094,
                0.7558803558349609,
                -0.27217137813568115,
                0.570947527885437
            ],
            "translation" : [
                4.076245307922363,
                5.903861999511719,
                -1.0054539442062378
            ]
        },
        {
            "name" : "Camera",
            "rotation" : [
                0.483536034822464,
                0.33687159419059753,
                -0.20870360732078552,
                0.7804827094078064
            ],
            "translation" : [
                7.481131553649902,
                5.34366512298584,
                6.5076398849487305
            ]
        }
    ],
    "animations" : [
        {
            "channels" : [
                {
                    "sampler" : 0,
                    "target" : {
                        "node" : 0,
                        "path" : "translation"
                    }
                },
                {
                    "sampler" : 1,
                    "target" : {
                        "node" : 0,
                        "path" : "rotation"
                    }
                },
                {
                    "sampler" : 2,
                    "target" : {
                        "node" : 0,
                        "path" : "scale"
                    }
                },
                {
                    "sampler" : 3,
                    "target" : {
                        "node" : 1,
                        "path" : "translation"
                    }
                },
                {
                    "sampler" : 4,
                    "target" : {
                        "node" : 1,
                        "path" : "rotation"
                    }
                },
                {
                    "sampler" : 5,
                    "target" : {
                        "node" : 1,
                        "path" : "scale"
                    }
                }
            ],
            "name" : "Close",
            "samplers" : [
                {
                    "input" : 6,
                    "interpolation" : "LINEAR",
                    "output" : 7
                },
                {
                    "input" : 6,
                    "interpolation" : "LINEAR",
                    "output" : 8
                },
                {
                    "input" : 6,
                    "interpolation" : "LINEAR",
                    "output" : 9
                },
                {
                    "input" : 6,
                    "interpolation" : "LINEAR",
                    "output" : 10
                },
                {
                    "input" : 6,
                    "interpolation" : "LINEAR",
                    "output" : 11
                },
                {
                    "input" : 6,
                    "interpolation" : "LINEAR",
                    "output" : 12
                }
            ]
        }
    ],
    "materials" : [
        {
            "doubleSided" : true,
            "name" : "Material.001",
            "pbrMetallicRoughness" : {}
        }
    ],
    "meshes" : [
        {
            "name" : "Cube.001",
            "primitives" : [
                {
                    "attributes" : {
                        "POSITION" : 0,
                        "NORMAL" : 1,
                        "JOINTS_0" : 2,
                        "WEIGHTS_0" : 3
                    },
                    "indices" : 4,
                    "material" : 0
                }
            ]
        }
    ],
    "skins" : [
        {
            "inverseBindMatrices" : 5,
            "joints" : [
                0,
                1
            ],
            "name" : "Armature"
        }
    ],
    "accessors" : [
        {
            "bufferView" : 0,
            "componentType" : 5126,
            "count" : 510,
            "max" : [
                2.163933753967285,
                2.825186252593994,
                3.1225321292877197
            ],
            "min" : [
                3.1474069312316605e-15,
                -2.4611124992370605,
                -0.45483434200286865
            ],
            "type" : "VEC3"
        },
        {
            "bufferView" : 1,
            "componentType" : 5126,
            "count" : 510,
            "type" : "VEC3"
        },
        {
            "bufferView" : 2,
            "componentType" : 5123,
            "count" : 510,
            "type" : "VEC4"
        },
        {
            "bufferView" : 3,
            "componentType" : 5126,
            "count" : 510,
            "type" : "VEC4"
        },
        {
            "bufferView" : 4,
            "componentType" : 5123,
            "count" : 642,
            "type" : "SCALAR"
        },
        {
            "bufferView" : 5,
            "componentType" : 5126,
            "count" : 2,
            "type" : "MAT4"
        },
        {
            "bufferView" : 6,
            "componentType" : 5126,
            "count" : 11,
            "max" : [
                0.4166666666666667
            ],
            "min" : [
                0
            ],
            "type" : "SCALAR"
        },
        {
            "bufferView" : 7,
            "componentType" : 5126,
            "count" : 11,
            "type" : "VEC3"
        },
        {
            "bufferView" : 8,
            "componentType" : 5126,
            "count" : 11,
            "type" : "VEC4"
        },
        {
            "bufferView" : 9,
            "componentType" : 5126,
            "count" : 11,
            "type" : "VEC3"
        },
        {
            "bufferView" : 10,
            "componentType" : 5126,
            "count" : 11,
            "type" : "VEC3"
        },
        {
            "bufferView" : 11,
            "componentType" : 5126,
            "count" : 11,
            "type" : "VEC4"
        },
        {
            "bufferView" : 12,
            "componentType" : 5126,
            "count" : 11,
            "type" : "VEC3"
        }
    ],
    "bufferViews" : [
        {
            "buffer" : 0,
            "byteLength" : 6120,
            "byteOffset" : 0
        },
        {
            "buffer" : 0,
            "byteLength" : 6120,
            "byteOffset" : 6120
        },
        {
            "buffer" : 0,
            "byteLength" : 4080,
            "byteOffset" : 12240
        },
        {
            "buffer" : 0,
            "byteLength" : 8160,
            "byteOffset" : 16320
        },
        {
            "buffer" : 0,
            "byteLength" : 1284,
            "byteOffset" : 24480
        },
        {
            "buffer" : 0,
            "byteLength" : 128,
            "byteOffset" : 25764
        },
        {
            "buffer" : 0,
            "byteLength" : 44,
            "byteOffset" : 25892
        },
        {
            "buffer" : 0,
            "byteLength" : 132,
            "byteOffset" : 25936
        },
        {
            "buffer" : 0,
            "byteLength" : 176,
            "byteOffset" : 26068
        },
        {
            "buffer" : 0,
            "byteLength" : 132,
            "byteOffset" : 26244
        },
        {
            "buffer" : 0,
            "byteLength" : 132,
            "byteOffset" : 26376
        },
        {
            "buffer" : 0,
            "byteLength" : 176,
            "byteOffset" : 26508
        },
        {
            "buffer" : 0,
            "byteLength" : 132,
            "byteOffset" : 26684
        }
    ],
    "buffers" : [
        {
            "byteLength" : 26816,
            "uri" : "data:application/octet-stream;base64,"
        }
    ]
}
