{
    "asset" : {
        "generator" : "Khronos glTF Blender I/O v1.2.75",
        "version" : "2.0"
    },
    "scene" : 0,
    "scenes" : [
        {
            "name" : "Scene",
            "nodes" : [
                0,
                1,
                2,
                3,
                4,
                5,
                6,
                7,
                8
            ]
        }
    ],
    "nodes" : [
        {
            "mesh" : 0,
            "name" : "Plane",
            "rotation" : [
                0,
                0,
                -0.7071067094802856,
                0.7071068286895752
            ],
            "scale" : [
                0.44724446535110474,
                0.44724446535110474,
                0.44724446535110474
            ],
            "translation" : [
                -1.430963158607483,
                3.1036200523376465,
                0.0018360167741775513
            ]
        },
        {
            "mesh" : 1,
            "name" : "Cube"
        },
        {
            "name" : "Lamp",
            "rotation" : [
                0.16907575726509094,
                0.7558803558349609,
                -0.27217137813568115,
                0.570947527885437
            ],
            "translation" : [
                4.076245307922363,
                5.903861999511719,
                -1.0054539442062378
            ]
        },
        {
            "name" : "Camera",
            "rotation" : [
                0.483536034822464,
                0.33687159419059753,
                -0.20870360732078552,
                0.7804827094078064
            ],
            "translation" : [
                7.481131553649902,
                5.34366512298584,
                6.5076398849487305
            ]
        },
        {
            "mesh" : 2,
            "name" : "Plane.001",
            "rotation" : [
                0,
                0,
                -0.7071067094802856,
                0.7071068286895752
            ],
            "scale" : [
                0.6235191226005554,
                0.6235191226005554,
                0.6235191226005554
            ],
            "translation" : [
                -1.430963158607483,
                1.9751168489456177,
                0.0018360167741775513
            ]
        },
        {
            "mesh" : 3,
            "name" : "Plane.003",
            "rotation" : [
                0,
                0,
                -0.7071067094802856,
                0.7071068286895752
            ],
            "scale" : [
                0.29774096608161926,
                0.29774096608161926,
                0.29774096608161926
            ],
            "translation" : [
                0.4104521572589874,
                3.9050676822662354,
                0.0018360167741775513
            ]
        },
        {
            "mesh" : 4,
            "name" : "Plane.002",
            "rotation" : [
                0,
                0,
                -0.7071067094802856,
                0.7071068286895752
            ],
            "scale" : [
                0.44352686405181885,
                0.44352686405181885,
                0.44352686405181885
            ],
            "translation" : [
                0.4104521572589874,
                3.120605707168579,
                0.0018360167741775513
            ]
        },
        {
            "mesh" : 5,
            "name" : "Plane.004",
            "rotation" : [
                0,
                0,
                -0.7071067094802856,
                0.7071068286895752
            ],
            "scale" : [
                0.712181031703949,
                0.712181031703949,
                0.712181031703949
            ],
            "translation" : [
                0.4104521572589874,
                1.898612380027771,
                0.0018360167741775513
            ]
        },
        {
            "mesh" : 6,
            "name" : "Plane.005",
            "rotation" : [
                0,
                0,
                -0.7071067094802856,
                0.7071068286895752
            ],
            "scale" : [
                0.6071690917015076,
                0.6071690917015076,
                0.6071690917015076
            ],
            "translation" : [
                2.4079277515411377,
                2.4903106689453125,
                0.0018360167741775513
            ]
        }
    ],
    "materials" : [
        {
            "doubleSided" : true,
            "name" : "Material.001",
            "pbrMetallicRoughness" : {}
        },
        {
            "doubleSided" : true,
            "name" : "Wood",
            "pbrMetallicRoughness" : {}
        },
        {
            "doubleSided" : true,
            "name" : "Edge",
            "pbrMetallicRoughness" : {}
        },
        {
            "doubleSided" : true,
            "name" : "Window",
            "pbrMetallicRoughness" : {}
        },
        {
            "doubleSided" : true,
            "name" : "Door",
            "pbrMetallicRoughness" : {}
        },
        {
            "doubleSided" : true,
            "name" : "Canon",
            "pbrMetallicRoughness" : {}
        },
        {
            "doubleSided" : true,
            "name" : "Material.002",
            "pbrMetallicRoughness" : {}
        },
        {
            "doubleSided" : true,
            "name" : "Material.005",
            "pbrMetallicRoughness" : {}
        },
        {
            "doubleSided" : true,
            "name" : "Material.004",
            "pbrMetallicRoughness" : {}
        },
        {
            "doubleSided" : true,
            "name" : "Material.003",
            "pbrMetallicRoughness" : {}
        },
        {
            "doubleSided" : true,
            "name" : "Material",
            "pbrMetallicRoughness" : {}
        }
    ],
    "meshes" : [
        {
            "name" : "Plane",
            "primitives" : [
                {
                    "attributes" : {
                        "POSITION" : 0,
                        "NORMAL" : 1
                    },
                    "indices" : 2,
                    "material" : 0
                }
            ]
        },
        {
            "name" : "Cube",
            "primitives" : [
                {
                    "attributes" : {
                        "POSITION" : 3,
                        "NORMAL" : 4
                    },
                    "indices" : 5,
                    "material" : 1
                },
                {
                    "attributes" : {
                        "POSITION" : 6,
                        "NORMAL" : 7
                    },
                    "indices" : 8,
                    "material" : 2
                },
                {
                    "attributes" : {
                        "POSITION" : 9,
                        "NORMAL" : 10
                    },
                    "indices" : 11,
                    "material" : 3
                },
                {
                    "attributes" : {
                        "POSITION" : 12,
                        "NORMAL" : 13
                    },
                    "indices" : 14,
                    "material" : 4
                },
                {
                    "attributes" : {
                        "POSITION" : 15,
                        "NORMAL" : 16
                    },
                    "indices" : 17,
                    "material" : 5
                }
            ]
        },
        {
            "name" : "Plane.001",
            "primitives" : [
                {
                    "attributes" : {
                        "POSITION" : 18,
                        "NORMAL" : 19
                    },
                    "indices" : 2,
                    "material" : 6
                }
            ]
        },
        {
            "name" : "Plane.003",
            "primitives" : [
                {
                    "attributes" : {
                        "POSITION" : 20,
                        "NORMAL" : 21
                    },
                    "indices" : 2,
                    "material" : 7
                }
            ]
        },
        {
            "name" : "Plane.002",
            "primitives" : [
                {
                    "attributes" : {
                        "POSITION" : 22,
                        "NORMAL" : 23
                    },
                    "indices" : 2,
                    "material" : 8
                }
            ]
        },
        {
            "name" : "Plane.004",
            "primitives" : [
                {
                    "attributes" : {
                        "POSITION" : 24,
                        "NORMAL" : 25
                    },
                    "indices" : 26,
                    "material" : 9
                }
            ]
        },
        {
            "name" : "Plane.005",
            "primitives" : [
                {
                    "attributes" : {
                        "POSITION" : 27,
                        "NORMAL" : 28
                    },
                    "indices" : 26,
                    "material" : 10
                }
            ]
        }
    ],
    "accessors" : [
        {
            "bufferView" : 0,
            "componentType" : 5126,
            "count" : 112,
            "max" : [
                1.0000001192092896,
                0.4447411596775055,
                1
            ],
            "min" : [
                -1.0001167058944702,
                -0.366378515958786,
                -1.0312016010284424
            ],
            "type" : "VEC3"
        },
        {
            "bufferView" : 1,
            "componentType" : 5126,
            "count" : 112,
            "type" : "VEC3"
        },
        {
            "bufferView" : 2,
            "componentType" : 5123,
            "count" : 168,
            "type" : "SCALAR"
        },
        {
            "bufferView" : 3,
            "componentType" : 5126,
            "count" : 379,
            "max" : [
                3.2935683727264404,
                4.243962287902832,
                0.8369539976119995
            ],
            "min" : [
                -3.3507187366485596,
                -0.21956026554107666,
                -2.980232238769531e-07
            ],
            "type" : "VEC3"
        },
        {
            "bufferView" : 4,
            "componentType" : 5126,
            "count" : 379,
            "type" : "VEC3"
        },
        {
            "bufferView" : 5,
            "componentType" : 5123,
            "count" : 579,
            "type" : "SCALAR"
        },
        {
            "bufferView" : 6,
            "componentType" : 5126,
            "count" : 303,
            "max" : [
                3.2935683727264404,
                3.6131608486175537,
                0.8369539976119995
            ],
            "min" : [
                -3.376441240310669,
                -0.21956026554107666,
                -0.020427733659744263
            ],
            "type" : "VEC3"
        },
        {
            "bufferView" : 7,
            "componentType" : 5126,
            "count" : 303,
            "type" : "VEC3"
        },
        {
            "bufferView" : 8,
            "componentType" : 5123,
            "count" : 465,
            "type" : "SCALAR"
        },
        {
            "bufferView" : 9,
            "componentType" : 5126,
            "count" : 12,
            "max" : [
                3.261408567428589,
                1.3681998252868652,
                0.8086859583854675
            ],
            "min" : [
                1.9615507125854492,
                1.1302812099456787,
                8.653885288367746e-07
            ],
            "type" : "VEC3"
        },
        {
            "bufferView" : 10,
            "componentType" : 5126,
            "count" : 12,
            "type" : "VEC3"
        },
        {
            "bufferView" : 11,
            "componentType" : 5123,
            "count" : 18,
            "type" : "SCALAR"
        },
        {
            "bufferView" : 12,
            "componentType" : 5126,
            "count" : 18,
            "max" : [
                1.9841034412384033,
                1.3442399501800537,
                0.14126735925674438
            ],
            "min" : [
                1.863211989402771,
                1.0151216983795166,
                0
            ],
            "type" : "VEC3"
        },
        {
            "bufferView" : 13,
            "componentType" : 5126,
            "count" : 18,
            "type" : "VEC3"
        },
        {
            "bufferView" : 14,
            "componentType" : 5123,
            "count" : 24,
            "type" : "SCALAR"
        },
        {
            "bufferView" : 15,
            "componentType" : 5126,
            "count" : 180,
            "max" : [
                1.5798457860946655,
                0.8248429894447327,
                0.8967060446739197
            ],
            "min" : [
                -1.779966115951538,
                0.6751570105552673,
                0.6040410995483398
            ],
            "type" : "VEC3"
        },
        {
            "bufferView" : 16,
            "componentType" : 5126,
            "count" : 180,
            "type" : "VEC3"
        },
        {
            "bufferView" : 17,
            "componentType" : 5123,
            "count" : 270,
            "type" : "SCALAR"
        },
        {
            "bufferView" : 18,
            "componentType" : 5126,
            "count" : 112,
            "max" : [
                1.0000001192092896,
                0.4473159909248352,
                1
            ],
            "min" : [
                -1.0001317262649536,
                -0.366378515958786,
                -1.031205654144287
            ],
            "type" : "VEC3"
        },
        {
            "bufferView" : 19,
            "componentType" : 5126,
            "count" : 112,
            "type" : "VEC3"
        },
        {
            "bufferView" : 20,
            "componentType" : 5126,
            "count" : 112,
            "max" : [
                1.0000001192092896,
                0.4738815128803253,
                1
            ],
            "min" : [
                -1.0002872943878174,
                -0.366378515958786,
                -1.0312484502792358
            ],
            "type" : "VEC3"
        },
        {
            "bufferView" : 21,
            "componentType" : 5126,
            "count" : 112,
            "type" : "VEC3"
        },
        {
            "bufferView" : 22,
            "componentType" : 5126,
            "count" : 112,
            "max" : [
                1.0000001192092896,
                0.46470406651496887,
                1
            ],
            "min" : [
                -1.00023353099823,
                -0.366378515958786,
                -1.0312336683273315
            ],
            "type" : "VEC3"
        },
        {
            "bufferView" : 23,
            "componentType" : 5126,
            "count" : 112,
            "type" : "VEC3"
        },
        {
            "bufferView" : 24,
            "componentType" : 5126,
            "count" : 112,
            "max" : [
                1.0000001192092896,
                0.45914074778556824,
                1
            ],
            "min" : [
                -1.0002009868621826,
                -0.366378515958786,
                -1.0312247276306152
            ],
            "type" : "VEC3"
        },
        {
            "bufferView" : 25,
            "componentType" : 5126,
            "count" : 112,
            "type" : "VEC3"
        },
        {
            "bufferView" : 26,
            "componentType" : 5123,
            "count" : 168,
            "type" : "SCALAR"
        },
        {
            "bufferView" : 27,
            "componentType" : 5126,
            "count" : 112,
            "max" : [
                1.0000001192092896,
                0.45953822135925293,
                1
            ],
            "min" : [
                -1.0002033710479736,
                -0.366378515958786,
                -1.031225323677063
            ],
            "type" : "VEC3"
        },
        {
            "bufferView" : 28,
            "componentType" : 5126,
            "count" : 112,
            "type" : "VEC3"
        }
    ],
    "bufferViews" : [
        {
            "buffer" : 0,
            "byteLength" : 1344,
            "byteOffset" : 0
        },
        {
            "buffer" : 0,
            "byteLength" : 1344,
            "byteOffset" : 1344
        },
        {
            "buffer" : 0,
            "byteLength" : 336,
            "byteOffset" : 2688
        },
        {
            "buffer" : 0,
            "byteLength" : 4548,
            "byteOffset" : 3024
        },
        {
            "buffer" : 0,
            "byteLength" : 4548,
            "byteOffset" : 7572
        },
        {
            "buffer" : 0,
            "byteLength" : 1158,
            "byteOffset" : 12120
        },
        {
            "buffer" : 0,
            "byteLength" : 3636,
            "byteOffset" : 13280
        },
        {
            "buffer" : 0,
            "byteLength" : 3636,
            "byteOffset" : 16916
        },
        {
            "buffer" : 0,
            "byteLength" : 930,
            "byteOffset" : 20552
        },
        {
            "buffer" : 0,
            "byteLength" : 144,
            "byteOffset" : 21484
        },
        {
            "buffer" : 0,
            "byteLength" : 144,
            "byteOffset" : 21628
        },
        {
            "buffer" : 0,
            "byteLength" : 36,
            "byteOffset" : 21772
        },
        {
            "buffer" : 0,
            "byteLength" : 216,
            "byteOffset" : 21808
        },
        {
            "buffer" : 0,
            "byteLength" : 216,
            "byteOffset" : 22024
        },
        {
            "buffer" : 0,
            "byteLength" : 48,
            "byteOffset" : 22240
        },
        {
            "buffer" : 0,
            "byteLength" : 2160,
            "byteOffset" : 22288
        },
        {
            "buffer" : 0,
            "byteLength" : 2160,
            "byteOffset" : 24448
        },
        {
            "buffer" : 0,
            "byteLength" : 540,
            "byteOffset" : 26608
        },
        {
            "buffer" : 0,
            "byteLength" : 1344,
            "byteOffset" : 27148
        },
        {
            "buffer" : 0,
            "byteLength" : 1344,
            "byteOffset" : 28492
        },
        {
            "buffer" : 0,
            "byteLength" : 1344,
            "byteOffset" : 29836
        },
        {
            "buffer" : 0,
            "byteLength" : 1344,
            "byteOffset" : 31180
        },
        {
            "buffer" : 0,
            "byteLength" : 1344,
            "byteOffset" : 32524
        },
        {
            "buffer" : 0,
            "byteLength" : 1344,
            "byteOffset" : 33868
        },
        {
            "buffer" : 0,
            "byteLength" : 1344,
            "byteOffset" : 35212
        },
        {
            "buffer" : 0,
            "byteLength" : 1344,
            "byteOffset" : 36556
        },
        {
            "buffer" : 0,
            "byteLength" : 336,
            "byteOffset" : 37900
        },
        {
            "buffer" : 0,
            "byteLength" : 1344,
            "byteOffset" : 38236
        },
        {
            "buffer" : 0,
            "byteLength" : 1344,
            "byteOffset" : 39580
        }
    ],
    "buffers" : [
        {
            "byteLength" : 40924,
            "uri" : "data:application/octet-stream;base64,"
        }
    ]
}
